# xmcd
# 
# Track frame offsets:
#     150
#     23377
#     41105
#     54030
#     74980
#     92242
#     115380
#     139080
#     158900
#     172297
#     189647
#     218345
# 
# Disc length: 3088
# 
# Revision: 1
# Processed by: cddbd v1.5.2PL0 Copyright (c) Steve Scherf et al.
# Submitted via: fre:ac v1.0.31
# 
DISCID=ab0c0e0c
DTITLE=Various Artist - Preachin' The Blues: The Music Of Mississippi Fred McDowell
DYEAR=2002
DGENRE=Blues
TTITLE0=Paul Geremia - Get Right Church
TTITLE1=Charlie Musselwhite - 61 Highway
TTITLE2=Anders Osborne - Kokomo Blues
TTITLE3=Colleen Sexton, Gregg Hoover - Keep Your Lamp Trimmed And Burning
TTITLE4=Brian Stotz - You Gotta Move
TTITLE5=Tab Benoit - Train I Ride
TTITLE6=David Maxwell - I Heard Somebody Call
TTITLE7=Sue Foley - Frisco Line
TTITLE8=Kenny Neal - Fred's Worried Life Blues
TTITLE9=Steve James - I Rolled And I Tumbled
TTITLE10=Johnny Sansone, Gregg Hoover - That's Alright
TTITLE11=Scott Holt - Good Morning Little Schoolgirl
EXTD=
EXTT0=
EXTT1=
EXTT2=
EXTT3=
EXTT4=
EXTT5=
EXTT6=
EXTT7=
EXTT8=
EXTT9=
EXTT10=
EXTT11=
PLAYORDER=
